<?xml version="1.0" encoding="UTF-8" standalone="no"?>
<svg
   width="15px"
   height="15px"
   viewBox="0 0 15 15"
   fill="none"
   version="1.1"
   id="svg60"
   sodipodi:docname="paw-svgrepo-com.svg"
   inkscape:version="1.2 (1:1.2+202205241504+da316b6974)"
   xmlns:inkscape="http://www.inkscape.org/namespaces/inkscape"
   xmlns:sodipodi="http://sodipodi.sourceforge.net/DTD/sodipodi-0.dtd"
   xmlns="http://www.w3.org/2000/svg"
   xmlns:svg="http://www.w3.org/2000/svg">
  <defs
     id="defs64" />
  <sodipodi:namedview
     id="namedview62"
     pagecolor="#ffffff"
     bordercolor="#666666"
     borderopacity="1.0"
     inkscape:showpageshadow="2"
     inkscape:pageopacity="0.0"
     inkscape:pagecheckerboard="0"
     inkscape:deskcolor="#d1d1d1"
     showgrid="false"
     inkscape:zoom="55.466667"
     inkscape:cx="7.5"
     inkscape:cy="6.8780048"
     inkscape:window-width="1920"
     inkscape:window-height="1011"
     inkscape:window-x="0"
     inkscape:window-y="32"
     inkscape:window-maximized="1"
     inkscape:current-layer="svg60" />
  <path
     d="M5 0C3.89543 0 3 0.895431 3 2V3C3 4.10457 3.89543 5 5 5C6.10457 5 7 4.10457 7 3V2C7 0.895431 6.10457 0 5 0Z"
     fill="black"
     id="path50"
     style="fill:#ffffff" />
  <path
     d="M10 0C8.89543 0 8 0.895431 8 2V3C8 4.10457 8.89543 5 10 5C11.1046 5 12 4.10457 12 3V2C12 0.895431 11.1046 0 10 0Z"
     fill="black"
     id="path52"
     style="fill:#ffffff" />
  <path
     d="M2 5C0.895431 5 0 5.89543 0 7V7.5C0 8.60457 0.895431 9.5 2 9.5C3.10457 9.5 4 8.60457 4 7.5V7C4 5.89543 3.10457 5 2 5Z"
     fill="black"
     id="path54"
     style="fill:#ffffff" />
  <path
     d="M13 5C11.8954 5 11 5.89543 11 7V7.5C11 8.60457 11.8954 9.5 13 9.5C14.1046 9.5 15 8.60457 15 7.5V7C15 5.89543 14.1046 5 13 5Z"
     fill="black"
     id="path56"
     style="fill:#ffffff" />
  <path
     d="M9.61273 7.77893C8.51793 6.44953 6.48207 6.44953 5.38727 7.77893L2.46943 11.322C1.2614 12.7889 2.30486 15 4.20516 15C4.47668 15 4.74447 14.9368 4.98732 14.8154L5.34699 14.6355C6.70234 13.9578 8.29766 13.9578 9.65301 14.6355L10.0127 14.8154C10.2555 14.9368 10.5233 15 10.7948 15C12.6951 15 13.7386 12.7889 12.5306 11.322L9.61273 7.77893Z"
     fill="black"
     id="path58"
     style="fill:#ffffff" />
</svg>
